<svg width="64" height="64" viewBox="0 0 64 64" fill="none" xmlns="http://www.w3.org/2000/svg">
<g clip-path="url(#clip0_2017_15)">
<path d="M48 8V13.3333H42.6667V8H21.3334V13.3333H16V8H10.6667V56H16V50.6667H21.3334V56H42.6667V50.6667H48V56H53.3334V8H48ZM21.3334 45.3333H16V40H21.3334V45.3333ZM21.3334 34.6667H16V29.3333H21.3334V34.6667ZM21.3334 24H16V18.6667H21.3334V24ZM48 45.3333H42.6667V40H48V45.3333ZM48 34.6667H42.6667V29.3333H48V34.6667ZM48 24H42.6667V18.6667H48V24Z" fill="#0C1932" fill-opacity="0.1"/>
</g>
<defs>
<clipPath id="clip0_2017_15">
<rect width="64" height="64" fill="white"/>
</clipPath>
</defs>
</svg>
